# Blender v2.79 (sub 0) OBJ File: 'waki.blend'
# www.blender.org
mtllib 1stfloor.mtl
o 1stfloor
v 3.176008 0.000997 -4.563896
v -7.341570 0.000997 3.514921
v -7.402941 0.000997 -1.814648
v 3.176008 0.000997 -1.814648
v 4.173244 0.000997 -4.563896
v 4.173244 0.000997 -1.814648
v -7.377632 0.000997 0.420811
v 3.176008 0.000997 -0.529693
v -7.388710 0.000997 -0.529693
v 3.176008 0.000997 -1.464476
v -7.399605 0.000997 -1.464476
v 5.678650 0.000997 0.420811
v 5.678650 0.000997 -0.529693
v 5.678650 0.000997 -1.464476
v 3.176008 0.000997 0.420811
v 3.176008 0.000997 3.514921
v 5.678650 0.000997 3.514921
v 3.176008 0.000997 4.114922
v 5.678650 0.000997 4.114922
v 4.173092 0.000997 0.420811
v 4.173092 0.000997 -0.529693
v 4.173092 0.000997 3.514921
v 4.173092 0.000997 -1.464476
v 4.173092 0.000997 4.114922
v 3.176008 -0.299003 -4.563896
v -7.341570 -0.299003 3.514921
v -7.402941 -0.299003 -1.814648
v 3.176008 -0.299003 -1.814648
v 4.173244 -0.299003 -4.563896
v 4.173244 -0.299003 -1.814648
v -7.377632 -0.299003 0.420811
v 3.176008 -0.299003 -0.529693
v -7.388710 -0.299003 -0.529693
v 3.176008 -0.299003 -1.464476
v -7.399605 -0.299003 -1.464476
v 5.678650 -0.299003 0.420811
v 5.678650 -0.299003 -0.529693
v 5.678650 -0.299003 -1.464476
v 3.176008 -0.299003 0.420811
v 3.176008 -0.299003 3.514921
v 5.678650 -0.299003 3.514921
v 3.176008 -0.299003 4.114922
v 5.678650 -0.299003 4.114922
v 4.173092 -0.299003 0.420811
v 4.173092 -0.299003 -0.529693
v 4.173092 -0.299003 3.514921
v 4.173092 -0.299003 -1.464476
v 4.173092 -0.299003 4.114922
v -5.380302 0.000997 -4.563896
v -5.353865 0.000997 -1.814648
v -5.342391 0.000997 -0.529693
v -5.351176 0.000997 -1.464476
v -5.304382 0.000997 3.514921
v -5.333458 0.000997 0.420811
v -5.380302 -0.299003 -4.563896
v -5.353865 -0.299003 -1.814648
v -5.342391 -0.299003 -0.529693
v -5.351176 -0.299003 -1.464476
v -5.304382 -0.299003 3.514921
v -5.333458 -0.299003 0.420811
vt -5.012996 2.654023
vt -2.977170 -3.570781
vt -2.977169 2.675366
vt -1.506309 2.690344
vt 0.302609 -3.570781
vt 0.302609 2.709750
vt -1.506309 -3.570781
vt 0.302609 -4.302776
vt -2.351769 -3.570781
vt -2.351768 2.681922
vt -1.736711 -3.570781
vt -1.736711 2.688370
vt -2.351769 -4.302664
vt -1.736712 -5.407779
vt -1.736712 -4.302664
vt -2.977171 -4.302664
vt -2.351769 -5.407779
vt -5.012997 -4.302664
vt -2.977171 -5.407779
vt -5.012997 -3.570781
vt -5.407778 -4.302664
vt -5.407779 -5.407778
vt -5.012997 -5.407778
vt 2.733217 2.357416
vt 0.697389 -3.867387
vt 2.733215 -3.888730
vt 6.012996 2.357415
vt 4.204077 -3.903709
vt 6.012995 -3.923116
vt 6.012996 3.089409
vt 4.204078 2.357416
vt 3.358619 2.357416
vt 3.358617 -3.895287
vt 3.973676 2.357416
vt 3.973674 -3.901735
vt 3.973676 4.194414
vt 3.358619 3.089299
vt 3.973676 3.089299
vt 3.358619 4.194414
vt 2.733217 3.089299
vt 2.733217 4.194414
vt 0.697390 3.089300
vt 0.302610 3.089300
vt 0.697390 2.357417
vt 0.302610 4.194414
vt 0.697390 4.194414
vt -4.223435 4.194413
vt -4.420826 4.926408
vt -4.420826 4.194413
vt 6.012996 5.967364
vt 6.210387 3.696214
vt 6.210387 5.967364
vt 6.210388 3.876043
vt 6.407778 1.604748
vt 6.407779 3.876043
vt 6.012996 3.696214
vt 6.210387 2.998522
vt 6.407778 -5.407779
vt 6.210387 -4.675784
vt 6.210387 -5.407779
vt 6.012996 2.998522
vt 6.210387 2.312370
vt 6.210388 4.573781
vt 6.407779 4.573781
vt -4.815606 6.031411
vt -4.618216 4.926296
vt -4.618216 6.031411
vt 6.210388 5.259977
vt 6.407779 5.259977
vt -4.815607 4.926296
vt -4.618216 4.194413
vt 6.012997 0.817026
vt 6.210387 -5.407779
vt 6.210387 0.817026
vt -5.012997 6.031411
vt -4.815607 5.299528
vt -4.815607 6.031411
vt -5.012998 5.299528
vt -4.815607 4.194413
vt -3.828654 4.194413
vt -4.026044 4.451448
vt -4.026044 4.194413
vt -4.223435 4.634810
vt -4.026044 4.194414
vt -4.026044 4.634810
vt 6.210388 5.517024
vt 6.407779 5.517024
vt 6.012996 6.407779
vt 6.210387 6.407779
vt -5.210388 6.212426
vt -5.012998 4.194413
vt -5.012998 6.212426
vt 6.012998 2.312370
vt 6.210388 2.312370
vt 6.407778 -4.675784
vt 6.210387 1.604748
vt 3.973674 -5.405330
vt 4.204077 -5.407779
vt 3.358617 -5.397333
vt 2.733215 -5.389201
vt -4.420826 5.698483
vt -4.618216 4.194413
vt -4.420826 4.194413
vt 0.697389 -5.362731
vt -1.736710 4.191965
vt -1.506308 4.194414
vt -2.351768 4.183969
vt -2.977170 4.175837
vt -5.407779 4.194413
vt -5.210388 6.212518
vt -5.407779 6.212518
vt -5.012996 4.149366
vt -1.506310 -4.302776
vt -5.407778 -3.570781
vt 4.204079 3.089411
vt 0.302610 2.357417
vt -4.223435 4.926408
vt 6.210387 1.604748
vt 6.012996 2.312370
vt -4.815607 4.194413
vt 6.012996 -5.407779
vt -5.012998 4.194413
vt -3.828654 4.451448
vt -4.223435 4.194413
vt -5.210388 4.194413
vt 6.407778 1.604748
vt -4.618216 5.698483
vt -5.210388 4.194413
vn 0.0000 1.0000 -0.0000
vn 0.0000 -1.0000 -0.0000
vn 0.0000 0.0000 1.0000
vn 1.0000 0.0000 0.0000
vn -0.9999 0.0000 0.0117
vn 0.0000 0.0000 -1.0000
vn -1.0000 0.0000 0.0000
vn -1.0000 0.0000 0.0095
vn -1.0000 0.0000 0.0096
usemtl Marble
s off
f 53/1/1 15/2/1 54/3/1
f 50/4/1 1/5/1 49/6/1
f 4/7/1 5/8/1 1/5/1
f 54/3/1 8/9/1 51/10/1
f 51/10/1 10/11/1 52/12/1
f 52/12/1 4/7/1 50/4/1
f 21/13/1 14/14/1 23/15/1
f 20/16/1 13/17/1 21/13/1
f 22/18/1 12/19/1 20/16/1
f 16/20/1 24/21/1 22/18/1
f 22/18/1 19/22/1 17/23/1
f 16/20/1 20/16/1 15/2/1
f 15/2/1 21/13/1 8/9/1
f 8/9/1 23/15/1 10/11/1
f 39/24/2 59/25/2 60/26/2
f 25/27/2 56/28/2 55/29/2
f 29/30/2 28/31/2 25/27/2
f 32/32/2 60/26/2 57/33/2
f 34/34/2 57/33/2 58/35/2
f 28/31/2 58/35/2 56/28/2
f 38/36/2 45/37/2 47/38/2
f 37/39/2 44/40/2 45/37/2
f 36/41/2 46/42/2 44/40/2
f 48/43/2 40/44/2 46/42/2
f 43/45/2 46/42/2 41/46/2
f 44/40/2 40/44/2 39/24/2
f 45/37/2 39/24/2 32/32/2
f 47/38/2 32/32/2 34/34/2
f 28/47/3 6/48/3 4/49/3
f 41/50/4 12/51/4 17/52/4
f 31/53/5 2/54/5 7/55/5
f 36/56/4 13/57/4 12/51/4
f 29/58/6 1/59/6 5/60/6
f 37/61/4 14/62/4 13/57/4
f 33/63/5 7/55/5 9/64/5
f 38/65/6 23/66/6 14/67/6
f 35/68/5 9/64/5 11/69/5
f 47/70/6 10/71/6 23/66/6
f 59/72/3 16/73/3 53/74/3
f 42/75/3 24/76/3 18/77/3
f 48/78/3 19/79/3 24/76/3
f 34/80/4 4/81/4 10/82/4
f 40/83/7 18/84/7 16/85/7
f 27/86/8 11/69/8 3/87/8
f 43/88/4 17/52/4 19/89/4
f 30/90/4 5/91/4 6/92/4
f 26/93/3 53/74/3 2/94/3
f 25/95/6 49/96/6 1/59/6
f 56/28/2 35/97/2 27/98/2
f 58/35/2 33/99/2 35/97/2
f 57/33/2 31/100/2 33/99/2
f 27/101/6 50/102/6 56/103/6
f 60/26/2 26/104/2 31/100/2
f 11/105/1 50/4/1 3/106/1
f 9/107/1 52/12/1 11/105/1
f 7/108/1 51/10/1 9/107/1
f 49/109/9 56/110/9 50/111/9
f 2/112/1 54/3/1 7/108/1
f 53/1/1 16/20/1 15/2/1
f 50/4/1 4/7/1 1/5/1
f 4/7/1 6/113/1 5/8/1
f 54/3/1 15/2/1 8/9/1
f 51/10/1 8/9/1 10/11/1
f 52/12/1 10/11/1 4/7/1
f 21/13/1 13/17/1 14/14/1
f 20/16/1 12/19/1 13/17/1
f 22/18/1 17/23/1 12/19/1
f 16/20/1 18/114/1 24/21/1
f 22/18/1 24/21/1 19/22/1
f 16/20/1 22/18/1 20/16/1
f 15/2/1 20/16/1 21/13/1
f 8/9/1 21/13/1 23/15/1
f 39/24/2 40/44/2 59/25/2
f 25/27/2 28/31/2 56/28/2
f 29/30/2 30/115/2 28/31/2
f 32/32/2 39/24/2 60/26/2
f 34/34/2 32/32/2 57/33/2
f 28/31/2 34/34/2 58/35/2
f 38/36/2 37/39/2 45/37/2
f 37/39/2 36/41/2 44/40/2
f 36/41/2 41/46/2 46/42/2
f 48/43/2 42/116/2 40/44/2
f 43/45/2 48/43/2 46/42/2
f 44/40/2 46/42/2 40/44/2
f 45/37/2 44/40/2 39/24/2
f 47/38/2 45/37/2 32/32/2
f 28/47/3 30/117/3 6/48/3
f 41/50/4 36/56/4 12/51/4
f 31/53/5 26/118/5 2/54/5
f 36/56/4 37/61/4 13/57/4
f 29/58/6 25/95/6 1/59/6
f 37/61/4 38/119/4 14/62/4
f 33/63/5 31/53/5 7/55/5
f 38/65/6 47/70/6 23/66/6
f 35/68/5 33/63/5 9/64/5
f 47/70/6 34/120/6 10/71/6
f 59/72/3 40/121/3 16/73/3
f 42/75/3 48/78/3 24/76/3
f 48/78/3 43/122/3 19/79/3
f 34/80/4 28/123/4 4/81/4
f 40/83/7 42/124/7 18/84/7
f 27/86/8 35/68/8 11/69/8
f 43/88/4 41/50/4 17/52/4
f 30/90/4 29/125/4 5/91/4
f 26/93/3 59/72/3 53/74/3
f 25/95/6 55/126/6 49/96/6
f 56/28/2 58/35/2 35/97/2
f 58/35/2 57/33/2 33/99/2
f 57/33/2 60/26/2 31/100/2
f 27/101/6 3/127/6 50/102/6
f 60/26/2 59/25/2 26/104/2
f 11/105/1 52/12/1 50/4/1
f 9/107/1 51/10/1 52/12/1
f 7/108/1 54/3/1 51/10/1
f 49/109/9 55/128/9 56/110/9
f 2/112/1 53/1/1 54/3/1
