# Blender v2.79 (sub 0) OBJ File: 'waki.blend'
# www.blender.org
mtllib 2ndfloor.mtl
o 2ndfloor
v 3.176008 2.688233 -4.563896
v -7.341570 2.688233 3.514921
v -7.402941 2.688233 -1.750634
v 3.176008 2.688233 -1.750634
v 4.173244 2.688233 -4.563896
v 4.173244 2.688233 -1.750634
v -7.377632 2.688233 0.420811
v 3.176008 2.688233 -0.529693
v -7.388710 2.688233 -0.529693
v 3.176008 2.688233 -1.464476
v -7.399605 2.688233 -1.464476
v 3.176008 2.688233 0.420811
v 3.176008 2.688233 3.514921
v 3.176008 2.388233 -4.563896
v -7.341570 2.388233 3.514921
v -7.402941 2.388233 -1.750634
v 3.176008 2.388233 -1.750634
v 4.173244 2.388233 -4.563896
v 4.173244 2.388233 -1.750634
v -7.377632 2.388233 0.420811
v 3.176008 2.388233 -0.529693
v -7.388710 2.388233 -0.529693
v 3.176008 2.388233 -1.464476
v -7.399605 2.388233 -1.464476
v 3.176008 2.388233 0.420811
v 3.176008 2.388233 3.514921
v -5.380302 2.688233 -4.563896
v -5.353865 2.688233 -1.750634
v -5.342391 2.688233 -0.529693
v -5.351176 2.688233 -1.464476
v -5.304382 2.688233 3.514921
v -5.333458 2.688233 0.420811
v -5.380302 2.388233 -4.563896
v -5.353865 2.388233 -1.750634
v -5.342391 2.388233 -0.529693
v -5.351176 2.388233 -1.464476
v -5.304382 2.388233 3.514921
v -5.333458 2.388233 0.420811
vt 0.267970 1.802279
vt 2.661061 -5.161567
vt 2.661062 1.826155
vt 4.340532 1.842912
vt 6.516405 -5.161568
vt 6.516406 1.864622
vt 4.340531 -5.161567
vt 6.516405 -5.980468
vt 3.396214 -5.161567
vt 3.396214 1.833490
vt 4.119207 -5.161567
vt 4.119208 1.840704
vt -2.125124 -5.161567
vt 0.267968 1.802278
vt -2.125123 1.826154
vt -5.980469 -5.161567
vt -3.804594 1.842911
vt -5.980468 1.864622
vt -5.980469 -5.980468
vt -3.804595 -5.161567
vt -2.860278 -5.161567
vt -2.860276 1.833490
vt -3.583270 -5.161567
vt -3.583270 1.840703
vt -5.052347 3.525553
vt -5.284377 4.344454
vt -5.284377 3.525553
vt 6.516407 5.197222
vt 6.748437 2.656257
vt 6.748437 5.197221
vt 6.980468 -5.980468
vt 6.748437 -5.161567
vt 6.748438 -5.980468
vt 6.516407 5.977801
vt 6.748437 5.977801
vt 6.516407 6.745468
vt 6.748437 6.745468
vt 6.748436 -4.307590
vt 6.516407 2.656257
vt 6.516407 -4.307590
vt 6.980469 5.953558
vt 6.748439 6.188542
vt 6.748439 5.953558
vt 6.516407 6.980468
vt 6.748437 6.980468
vt -5.748438 5.835720
vt -5.516407 3.525553
vt -5.516407 5.835720
vt 6.748436 -5.980468
vt 6.516407 -5.980468
vt 6.980468 -5.161567
vt 6.748437 1.864623
vt -3.583269 3.522814
vt -3.804593 3.525553
vt -2.860276 3.513867
vt -2.125123 3.504770
vt -5.284377 5.208194
vt -5.516407 3.525553
vt -5.284377 3.525553
vt 0.267968 3.475157
vt 4.119208 3.522814
vt 4.340532 3.525553
vt 3.396214 3.513868
vt 2.661062 3.504770
vt -5.980469 3.525553
vt -5.748438 5.835819
vt -5.980468 5.835819
vt 0.267970 3.475157
vt 6.748439 5.185942
vt 6.748438 4.405416
vt 6.980469 5.185942
vt 6.748437 1.864623
vt 6.980469 4.405416
vt 0.267969 -5.161567
vt 4.340531 -5.980468
vt 0.267967 -5.161568
vt -3.804595 -5.980468
vt -5.052347 4.344454
vt 6.516407 2.656257
vt 6.748437 2.656257
vt 6.980469 6.188542
vt -5.748438 3.525553
vt 6.980468 1.864623
vt -5.516407 5.208194
vt -5.748438 3.525553
vt 6.980468 1.864623
vn 0.0000 1.0000 -0.0000
vn 0.0000 -1.0000 0.0000
vn 0.0000 0.0000 1.0000
vn -0.9999 0.0000 0.0117
vn 0.0000 0.0000 -1.0000
vn 1.0000 0.0000 0.0000
vn -1.0000 0.0000 0.0094
usemtl Floor
s off
f 31/1/1 12/2/1 32/3/1
f 28/4/1 1/5/1 27/6/1
f 4/7/1 5/8/1 1/5/1
f 32/3/1 8/9/1 29/10/1
f 29/10/1 10/11/1 30/12/1
f 30/12/1 4/7/1 28/4/1
f 25/13/2 37/14/2 38/15/2
f 14/16/2 34/17/2 33/18/2
f 18/19/2 17/20/2 14/16/2
f 21/21/2 38/15/2 35/22/2
f 23/23/2 35/22/2 36/24/2
f 17/20/2 36/24/2 34/17/2
f 17/25/3 6/26/3 4/27/3
f 20/28/4 2/29/4 7/30/4
f 18/31/5 1/32/5 5/33/5
f 22/34/4 7/30/4 9/35/4
f 24/36/4 9/35/4 11/37/4
f 37/38/3 13/39/3 31/40/3
f 23/41/6 4/42/6 10/43/6
f 16/44/4 11/37/4 3/45/4
f 19/46/6 5/47/6 6/48/6
f 15/49/3 31/40/3 2/50/3
f 14/51/5 27/52/5 1/32/5
f 34/17/2 24/53/2 16/54/2
f 36/24/2 22/55/2 24/53/2
f 35/22/2 20/56/2 22/55/2
f 16/57/5 28/58/5 34/59/5
f 38/15/2 15/60/2 20/56/2
f 11/61/1 28/4/1 3/62/1
f 9/63/1 30/12/1 11/61/1
f 7/64/1 29/10/1 9/63/1
f 27/65/7 34/66/7 28/67/7
f 2/68/1 32/3/1 7/64/1
f 8/69/6 23/41/6 10/43/6
f 12/70/6 21/71/6 8/69/6
f 13/72/6 25/73/6 12/70/6
f 31/1/1 13/74/1 12/2/1
f 28/4/1 4/7/1 1/5/1
f 4/7/1 6/75/1 5/8/1
f 32/3/1 12/2/1 8/9/1
f 29/10/1 8/9/1 10/11/1
f 30/12/1 10/11/1 4/7/1
f 25/13/2 26/76/2 37/14/2
f 14/16/2 17/20/2 34/17/2
f 18/19/2 19/77/2 17/20/2
f 21/21/2 25/13/2 38/15/2
f 23/23/2 21/21/2 35/22/2
f 17/20/2 23/23/2 36/24/2
f 17/25/3 19/78/3 6/26/3
f 20/28/4 15/79/4 2/29/4
f 18/31/5 14/51/5 1/32/5
f 22/34/4 20/28/4 7/30/4
f 24/36/4 22/34/4 9/35/4
f 37/38/3 26/80/3 13/39/3
f 23/41/6 17/81/6 4/42/6
f 16/44/4 24/36/4 11/37/4
f 19/46/6 18/82/6 5/47/6
f 15/49/3 37/38/3 31/40/3
f 14/51/5 33/83/5 27/52/5
f 34/17/2 36/24/2 24/53/2
f 36/24/2 35/22/2 22/55/2
f 35/22/2 38/15/2 20/56/2
f 16/57/5 3/84/5 28/58/5
f 38/15/2 37/14/2 15/60/2
f 11/61/1 30/12/1 28/4/1
f 9/63/1 29/10/1 30/12/1
f 7/64/1 32/3/1 29/10/1
f 27/65/7 33/85/7 34/66/7
f 2/68/1 31/1/1 32/3/1
f 8/69/6 21/71/6 23/41/6
f 12/70/6 25/73/6 21/71/6
f 13/72/6 26/86/6 25/73/6
